HIERARCHY
ROOT Hips
{
  OFFSET -18.3549 93.285 7.80479
  CHANNELS 6 Xposition Yposition Zposition Zrotation Xrotation Yrotation
  JOINT ToSpine
  {
    OFFSET -2.69724 7.43032 -0.144315
    CHANNELS 3 Zrotation Xrotation Yrotation
    JOINT Spine
    {
      OFFSET -0.0310711 10.7595 1.96963
      CHANNELS 3 Zrotation Xrotation Yrotation
      JOINT Spine1
      {
        OFFSET 13.1342 3.43533 0.764692
        CHANNELS 3 Zrotation Xrotation Yrotation
        JOINT Neck
        {
          OFFSET 29.8703 7.82586 -0.130764
          CHANNELS 3 Zrotation Xrotation Yrotation
          JOINT Head
          {
            OFFSET 9.52751 0.295786 -0.907742
            CHANNELS 3 Zrotation Xrotation Yrotation
            End Site
            {
              OFFSET 16.4037 0.713936 2.7358
            }
          }
        }
        JOINT LeftShoulder
        {
          OFFSET 27.5574 4.95586 2.47156
          CHANNELS 3 Zrotation Xrotation Yrotation
          JOINT LeftArm
          {
            OFFSET 1.20734 -0.998971 20.1238
            CHANNELS 3 Zrotation Xrotation Yrotation
            JOINT LeftForeArm
            {
              OFFSET 26.8049 -0.0536703 -0.155908
              CHANNELS 3 Zrotation Xrotation Yrotation
              JOINT LeftHand
              {
                OFFSET 26.6817 0 0.320147
                CHANNELS 3 Zrotation Xrotation Yrotation
                End Site
                {
                  OFFSET 18.6119 0 0.382219
                }
              }
            }
          }
        }
        JOINT RightShoulder
        {
          OFFSET 27.5927 4.71444 -2.65209
          CHANNELS 3 Zrotation Xrotation Yrotation
          JOINT RightArm
          {
            OFFSET 2.83739 -1.17114 -18.7564
            CHANNELS 3 Zrotation Xrotation Yrotation
            JOINT RightForeArm
            {
              OFFSET 28.839 -0.0548439 1.22491
              CHANNELS 3 Zrotation Xrotation Yrotation
              JOINT RightHand
              {
                OFFSET 26.5114 0 -0.101894
                CHANNELS 3 Zrotation Xrotation Yrotation
                End Site
                {
                  OFFSET 18.2168 0 0
                }
              }
            }
          }
        }
      }
    }
  }
  JOINT LeftUpLeg
  {
    OFFSET -4.76168 -1.9167 -10.2353
    CHANNELS 3 Zrotation Xrotation Yrotation
    JOINT LeftLeg
    {
      OFFSET 2.55951 -42.0585 -8.02213
      CHANNELS 3 Zrotation Xrotation Yrotation
      JOINT LeftFoot
      {
        OFFSET 3.16357 -42.5282 -3.95426
        CHANNELS 3 Zrotation Xrotation Yrotation
        JOINT LeftToeBase
        {
          OFFSET 0.346054 -6.02161 12.8035
          CHANNELS 3 Zrotation Xrotation Yrotation
          End Site
          {
            OFFSET 0.134235 -1.35082 5.13018
          }
        }
      }
    }
  }
  JOINT RightUpLeg
  {
    OFFSET -4.94151 -1.41743 10.6446
    CHANNELS 3 Zrotation Xrotation Yrotation
    JOINT RightLeg
    {
      OFFSET -2.56294 -42.0364 -7.94377
      CHANNELS 3 Zrotation Xrotation Yrotation
      JOINT RightFoot
      {
        OFFSET -3.0952 -42.555 -4.02241
        CHANNELS 3 Zrotation Xrotation Yrotation
        JOINT RightToeBase
        {
          OFFSET -0.0828122 -6.13587 12.8035
          CHANNELS 3 Zrotation Xrotation Yrotation
          End Site
          {
            OFFSET -0.131328 -1.35082 5.13018
          }
        }
      }
    }
  }
}
MOTION
Frames:	17
Frame Time:	0.0333333
2.42381 90.8486 0.552148 -73.7825 41.9026 172.373 -70.1915 0 88.8779 87.785 74.5183 -0.43365 3.59075 22.7952 5.56106 -114.1 33.3055 150.676 169.994 79.6236 -139.183 0.57288 -14.3579 -20.9948 -53.7121 35.3666 -147.538 24.9206 -6.95345 -103.842 0.420957 0.000576191 0.35866 -2.29083 9.05812 39.522 -134.945 -14.0221 97.4058 14.2157 -4.50723 72.6794 0.58676 0.000330428 0.0646655 -45.6462 8.98265 93.7252 -5.67884 57.0422 -9.82315 0.299713 -23.9324 -2.01203 2.49455 -9.10514 16.0944 -41.8489 -14.3651 75.5192 2.14981 44.2455 0.428382 -4.56148 -5.97695 0.964682 1.92783 -7.78688 -10.4944 
2.40888 90.8695 0.529412 -73.8711 41.6625 172.503 -70.1915 0 88.8779 87.4977 74.513 -0.0380261 3.53707 22.8767 5.30001 -113.403 33.0468 149.961 171.158 79.8306 -140.081 0.558554 -14.5313 -20.8569 -53.6845 35.4532 -147.297 24.9106 -7.07937 -104.097 0.420957 0.000576191 0.35866 -2.27113 8.81745 40.0231 -134.835 -13.5572 97.8007 14.1179 -4.52067 72.5194 0.58676 0.000330428 0.0646655 -45.7024 8.94409 93.6362 -5.68039 56.9357 -10.1121 0.403443 -23.5389 -1.97071 2.78568 -9.52491 15.9686 -42.0855 -14.4628 75.2599 2.11712 44.0322 0.340117 -4.5176 -5.79855 0.955161 1.92916 -8.08763 -10.3931 
2.39136 90.909 0.554718 -74.1157 41.5481 172.747 -70.1915 0 88.8779 87.6671 74.4942 -0.0746424 3.71573 22.8417 5.13572 -113.271 33.5976 149.789 168.711 80.2522 -137.509 0.587564 -14.3213 -20.7138 -53.5304 35.8808 -147.246 25.1122 -7.23295 -104.27 0.420957 0.000576191 0.35866 -2.25722 8.96547 39.4423 -134.965 -13.814 97.4952 14.7351 -4.71813 72.5435 0.58676 0.000330428 0.0646655 -45.7987 8.94788 93.5902 -5.67209 56.9539 -10.0363 0.471562 -23.3118 -1.94648 2.80613 -9.5124 15.7113 -42.401 -14.4998 75.0386 2.04395 43.8218 -0.034792 -5.1967 -5.31765 0.991701 1.85103 -8.78011 -9.18042 
2.3554 90.8541 0.604783 -74.3346 41.5651 172.898 -70.1915 0 88.8779 88.2923 74.5295 -0.712359 3.85387 22.8342 5.13841 -113.481 34.7775 149.27 164.4 81.2136 -133.573 0.603086 -14.2236 -20.5865 -53.5366 36.6185 -146.663 26.0627 -7.66739 -104.492 0.420957 0.000576191 0.35866 -2.26729 9.07362 39.2467 -134.809 -13.6022 97.4834 14.398 -4.59748 72.5662 0.58676 0.000330428 0.0646655 -45.845 8.80834 93.5113 -5.63063 57.0729 -9.47726 0.540162 -23.1439 -1.92757 2.86371 -9.47298 14.9654 -42.4684 -14.5763 75.1001 2.03101 43.9796 -0.263535 -4.8502 -5.41245 0.967651 1.73149 -8.05371 -8.20641 
2.38416 90.8039 0.720346 -74.3242 41.5465 172.781 -70.1915 0 88.8779 89.7421 74.5319 -2.40396 3.55873 22.8 5.12792 -113.355 36.3414 148.046 153.62 82.3398 -123.436 0.653453 -13.888 -20.1846 -53.2229 37.2287 -146.025 25.8615 -7.92215 -105.099 0.420957 0.000576191 0.35866 -2.24455 9.05945 39.0575 -134.626 -13.1968 97.4382 14.6327 -4.63885 72.6826 0.58676 0.000330428 0.0646655 -45.6546 8.46836 93.3967 -5.58725 57.2275 -8.83259 0.726954 -22.8774 -1.89147 2.92665 -9.46612 14.3561 -42.1553 -14.7196 75.4135 1.95313 44.2957 -1.05251 -3.9684 -5.69311 0.9054 1.45495 -6.82945 -6.19831 
2.39853 90.7708 0.908726 -74.1953 41.6633 172.293 -70.1915 0 88.8779 91.3259 74.5917 -4.46716 3.1819 22.9092 4.93526 -112.885 37.8972 145.754 139.498 83.6383 -109.563 0.657604 -14.0219 -19.6536 -52.6345 38.0689 -145.177 25.6876 -8.25893 -105.848 0.420957 0.000576191 0.35866 -2.25779 8.8632 39.7981 -134.131 -11.938 97.7408 14.2585 -4.48409 72.7823 0.58676 0.000330428 0.0646655 -45.4333 7.96517 93.599 -5.55209 57.3482 -8.33639 0.538158 -22.7203 -1.89342 2.83362 -9.34893 14.5078 -41.516 -14.8576 76.3492 1.90009 44.7153 -1.68444 -3.64552 -5.7788 0.884423 1.29755 -5.96549 -5.28694 
2.40516 90.7136 1.22309 -73.8174 42.3161 171.339 -70.1915 0 88.8779 91.3187 74.7881 -5.27026 3.50762 23.0773 4.68686 -113.226 39.4203 143.355 120.849 84.2346 -92.2076 0.681993 -14.023 -18.9458 -52.1837 38.7705 -144.924 25.3071 -8.34854 -106.285 0.420957 0.000576191 0.35866 -2.23651 8.89676 39.4799 -133.945 -11.7229 97.1085 13.6803 -4.20171 73.1083 0.58676 0.000330428 0.0646655 -45.2258 7.62364 94.5349 -5.52691 57.4097 -8.02957 0.670763 -22.0713 -1.83242 3.20529 -10.0473 15.2637 -40.3972 -14.5407 78.397 1.85384 45.1491 -2.278 -2.65935 -5.71854 0.801079 1.31134 -5.23716 -5.85508 
2.54573 90.7265 1.67802 -73.024 43.6826 170.016 -70.1915 0 88.8779 88.7589 75.1867 -3.60331 4.91218 23.372 4.28356 -113.839 40.1535 140.739 107.894 84.5931 -80.0469 0.663273 -14.5555 -18.1336 -52.1577 39.2669 -145.138 24.3557 -8.04464 -106.391 0.420957 0.000576191 0.35866 -1.98977 8.56575 37.6336 -134.691 -13.1691 95.9507 13.3028 -4.05707 73.1895 0.58676 0.000330428 0.0646655 -44.9619 7.74517 96.0691 -5.40261 57.3059 -7.37059 0.880577 -21.5165 -1.77496 3.39954 -10.3675 15.4024 -38.9664 -13.7366 80.6917 1.75133 45.1869 -2.96987 -2.3913 -4.85797 0.731325 1.27755 -5.32214 -5.52779 
2.79558 90.7698 2.27568 -71.5808 45.8086 168.233 -70.1915 0 88.8779 92.6029 75.1772 -8.63171 3.37743 23.2089 4.98724 -114.372 39.9781 140.292 108.632 84.4367 -81.2973 0.676619 -14.2568 -18.4856 -51.7377 39.7871 -144.271 24.2831 -8.43104 -107.208 0.420957 0.000576191 0.35866 -2.18516 8.79831 39.2441 -134.37 -12.3323 97.0778 12.6062 -3.88859 72.9811 0.58676 0.000330428 0.0646655 -44.549 8.15997 97.6825 -5.25939 57.1044 -6.72948 0.699677 -21.279 -1.7681 3.33383 -10.3664 16.0532 -37.2667 -12.2469 83.1569 1.63138 44.7018 -3.38266 -2.57943 -3.21161 0.659006 1.29133 -5.78057 -5.31046 
2.9719 90.9355 3.05396 -69.7374 48.5578 166.224 -70.1915 0 88.8779 95.461 75.1049 -12.1189 2.62295 23.1974 4.93052 -115.104 39.1037 140.341 117.07 84.2174 -90.2676 0.68608 -14.3079 -18.1055 -51.332 39.9392 -144.36 23.9555 -8.45335 -107.51 0.420957 0.000576191 0.35866 -2.24299 9.0555 39.1449 -134.713 -12.7385 97.1549 11.636 -3.57586 72.9911 0.58676 0.000330428 0.0646655 -44.3242 8.7701 99.2946 -4.98542 56.6201 -5.68075 0.164862 -21.2124 -1.79543 3.14849 -10.0849 16.0363 -35.9841 -10.9812 84.3154 1.68312 43.205 -2.13149 -3.41434 -0.804352 0.626478 1.31983 -6.76475 -4.92376 
3.12803 91.2313 3.96572 -67.6046 51.895 164.039 -70.1915 0 88.8779 99.5989 74.8449 -16.8629 1.60886 23.0618 5.16966 -115.567 38.0322 141.544 126.381 83.1411 -99.5345 0.718979 -13.9184 -18.1414 -51.1122 39.6991 -144.492 22.9882 -8.26618 -107.917 0.420957 0.000576191 0.35866 -2.28256 9.17146 39.2591 -134.338 -13.0372 97.9333 11.2296 -3.47543 72.8584 0.58676 0.000330428 0.0646655 -44.4175 9.62725 100.983 -4.59367 55.9173 -4.23573 0.0152249 -21.1489 -1.79929 2.79421 -9.5215 15.8753 -35.325 -10.0587 83.8984 1.66937 40.6111 -0.569258 -3.70746 1.86857 0.537859 0.84668 -7.03587 -0.139035 
3.30507 91.4909 4.98019 -64.2031 55.7807 161.227 -70.1915 0 88.8779 102.42 74.805 -19.4298 0.994324 23.1887 5.2422 -114.861 36.4867 142.23 133.745 81.9103 -105.69 0.716429 -13.9012 -18.2628 -51.5741 39.3158 -144.068 21.3484 -7.89107 -108.537 0.420957 0.000576191 0.35866 -2.40717 9.38573 40.0045 -134.046 -12.3305 99.0372 12.6751 -3.9862 72.6535 0.58676 0.000330428 0.0646655 -44.1187 11.2797 102.577 -4.24669 55.4278 -2.72938 0.0987318 -21.1005 -1.78997 2.52135 -9.17916 16.2789 -34.8323 -8.93645 82.2314 1.92371 37.2728 3.59367 -1.45699 4.8375 0.0216862 0.370082 -5.51724 2.50614 
3.34009 91.8771 5.99324 -59.7368 59.535 157.081 -70.1915 0 88.8779 101.153 75.301 -18.1867 1.43487 23.4698 5.4714 -114.294 35.4926 143.198 137.431 80.7764 -108.251 0.662004 -14.3252 -18.7105 -52.2512 38.784 -143.485 24.2414 -8.51854 -107.415 0.420957 0.000576191 0.35866 -2.30521 9.50618 38.5835 -134.401 -12.9059 98.6466 13.3419 -4.13994 72.8769 0.58676 0.000330428 0.0646655 -43.9542 12.623 104.381 -3.88485 54.5768 -1.50328 -0.0779411 -20.5614 -1.75512 2.62272 -9.45762 17.0235 -34.9829 -8.36956 80.1827 2.49832 33.0527 10.8761 2.97588 7.24126 -0.982588 0.27327 -3.95628 1.90962 
3.24079 92.1541 6.82691 -55.0576 63.0479 152.014 -70.1915 0 88.8779 101.623 75.4881 -18.7258 1.36115 23.8292 5.03713 -113.846 34.4385 144.018 143.435 80.2065 -113.14 0.68866 -14.1327 -18.4647 -52.6597 38.4834 -142.654 24.1512 -8.50128 -107.453 0.420957 0.000576191 0.35866 -2.30783 9.48406 38.6744 -134.451 -12.7347 98.8842 13.0504 -3.9934 73.0676 0.58676 0.000330428 0.0646655 -44.4919 13.2102 106.357 -3.39542 53.5086 0.315264 -0.165494 -20.0412 -1.71499 2.79705 -9.68834 16.8444 -35.6883 -7.82355 80.5231 3.06615 29.1575 20.3033 5.44796 9.25693 -1.69664 1.59287 -10.5462 -4.81666 
3.09615 92.4204 7.34513 -50.3164 65.9454 146.956 -70.1915 0 88.8779 99.9749 75.5131 -16.8522 1.69474 23.7556 4.73562 -113.944 34.4195 146.238 143.374 79.0622 -112.98 0.666466 -14.2243 -18.8459 -53.1595 38.5909 -141.356 23.525 -8.32992 -107.61 0.420957 0.000576191 0.35866 -2.2452 9.33134 38.445 -134.344 -13.1191 99.3236 13.9205 -4.34221 72.8142 0.58676 0.000330428 0.0646655 -45.2521 13.7323 108.029 -2.95964 52.5363 1.95529 -0.606854 -20.0221 -1.73499 2.65105 -9.44204 16.6777 -36.5539 -7.53289 81.4329 2.77551 26.4698 24.3714 5.79049 8.07034 -1.63999 2.13039 -13.1029 -11.8646 
2.91949 92.7014 7.61422 -46.9922 67.7705 143.538 -70.1915 0 88.8779 97.0111 75.4743 -13.4471 2.41622 23.4232 4.74414 -114.108 34.6142 147.435 144.16 78.8925 -113.906 0.714358 -13.7034 -18.8834 -53.5074 38.615 -141.15 23.592 -8.2765 -107.449 0.420957 0.000576191 0.35866 -2.08548 9.33949 36.6949 -134.969 -14.1592 97.8052 13.8038 -4.24311 73.0274 0.58676 0.000330428 0.0646655 -46.0211 13.9779 108.88 -2.69253 51.6622 2.7971 -0.781094 -19.5635 -1.70227 2.67549 -9.56439 17.1891 -37.6651 -8.92231 81.1746 2.46685 25.1958 16.4344 1.32621 7.45634 -0.677928 2.05665 -12.1618 -9.97886 
2.72112 93.0556 7.68259 -44.0769 69.339 140.385 -70.1915 0 88.8779 94.6467 75.4248 -10.5226 3.03725 23.3188 4.74467 -113.98 34.7351 147.82 146.488 79.3864 -116.349 0.751075 -13.3021 -18.9247 -53.2684 38.9088 -141.331 23.887 -8.39242 -107.447 0.420957 0.000576191 0.35866 -2.0289 9.17064 36.471 -135.526 -13.7321 97.1717 13.9516 -4.30292 72.9812 0.58676 0.000330428 0.0646655 -47.1446 13.8445 109.553 -2.3343 50.4008 3.84263 -0.818771 -18.7853 -1.63275 2.87936 -9.897 17.3805 -38.8801 -11.3374 80.0885 2.43896 25.3488 5.6122 -3.1692 7.48774 0.177957 1.35091 -8.36458 -3.19392 
